<svg version="1" xmlns="http://www.w3.org/2000/svg" width="933.333" height="933.333" viewBox="0 0 700.000000 700.000000">
    <path d="M108.9 101.5c-.1 0-.3 111-.3 246.8l-.2 246.7 2.8.1c3.4.1 3.6.1 47.3 0l35.5-.1V391.5c0-193.1.1-203.5 1.8-203.6 10-.5 268.4 0 273.2.5 25.2 2.7 42.8 10.4 57.5 25.2 13.6 13.7 21.5 30.1 24.2 50.2.9 7.2.9 27 0 34-.7 5.3-4.3 19.3-5.7 22.1-5.3 11-7.1 14.3-10.6 19.1-13.9 18.6-30.7 28.7-56 33.6-8.1 1.6-18.6 1.7-115.1 1.8l-106.3.1v83.6l111.8-.4c61.4-.1 112.6-.6 113.7-.9 1.1-.3 4.3-.9 7-1.2 18.2-2.3 39.3-8.8 57-17.6 32.7-16.3 57.8-42.6 72.7-76.1 4.5-10.1 11-29.7 12.2-36.9.3-1.9.8-4.9 1.2-6.5 2.3-12.4 3.2-25 2.9-44.5-.2-11.8-.6-22.6-.8-24-.3-1.4-1.1-5.9-1.7-10-4.3-29.5-17.6-59.5-35.3-80.5-25.2-29.7-59-47.7-103.7-55.1-2.5-.4-5.4-.8-6.5-.9-1.1-.1-5.1-.6-9-1-4.8-.6-366.6-1.6-369.6-1z"/>
</svg>
